<?xml version="1.0" encoding="UTF-8" standalone="no"?>
<!-- Created with Inkscape (http://www.inkscape.org/) -->
<svg
   xmlns:svg="http://www.w3.org/2000/svg"
   xmlns="http://www.w3.org/2000/svg"
   xmlns:xlink="http://www.w3.org/1999/xlink"
   xmlns:inkscape="http://www.inkscape.org/namespaces/inkscape"
   version="1.0"
   width="678.31183"
   height="262.61432"
   viewBox="0 0 707 291"
   id="Layer_1"
   xml:space="preserve"><defs
   id="defs61">

<metadata>
<rdf:RDF
      xmlns="http://web.resource.org/cc/"
      xmlns:dc="http://purl.org/dc/elements/1.1/"
      xmlns:rdf="http://www.w3.org/1999/02/22-rdf-syntax-ns#">
      <Work rdf:about="">
         <dc:title>Parchment Background</dc:title>
         <dc:description>Parchment Background</dc:description>
         <dc:subject>
          <rdf:Bag>
            <rdf:li>border</rdf:li>
            <rdf:li>background</rdf:li>
		<rdf:li>parchment</rdf:li>
          </rdf:Bag>
         </dc:subject>
         <dc:publisher><Agent rdf:about="http://www.openclipart.org/"><dc:title>Open Clip Art Project</dc:title></Agent></dc:publisher>
         <dc:creator><Agent rdf:about=""><dc:title>Gerald G.</dc:title></Agent></dc:creator>
         <dc:rights><Agent rdf:about="http://web.resource.org/cc/PublicDomain"><dc:title>Public Domain</dc:title></Agent></dc:rights>
         <dc:date>2006/09/25</dc:date>
         <dc:format>image/svg+xml</dc:format>
         <dc:type>http://purl.org/dc/dcmitype/StillImage</dc:type>
         <license rdf:resource="http://web.resource.org/cc/PublicDomain" />
      </Work>
      <License rdf:about="http://web.resource.org/cc/PublicDomain">
         <permits rdf:resource="http://web.resource.org/cc/Reproduction" />
         <permits rdf:resource="http://web.resource.org/cc/Distribution" />
         <permits rdf:resource="http://web.resource.org/cc/DerivativeWorks" />
      </License>
   </rdf:RDF>
</metadata>
	
	<linearGradient
   x1="655.94531"
   y1="138.34129"
   x2="683.30658"
   y2="138.34129"
   id="XMLID_4_"
   gradientUnits="userSpaceOnUse">
		<stop
   style="stop-color:#8d5c34;stop-opacity:1"
   offset="0.0048"
   id="stop18" />
		<stop
   style="stop-color:#93633b;stop-opacity:1"
   offset="0.1429"
   id="stop20" />
		<stop
   style="stop-color:#e8d0a9;stop-opacity:1"
   offset="0.29519999"
   id="stop22" />
		<stop
   style="stop-color:#e3cba4;stop-opacity:1"
   offset="0.63810003"
   id="stop24" />
		<stop
   style="stop-color:#93633a;stop-opacity:1"
   offset="0.93330002"
   id="stop26" />
		<stop
   style="stop-color:#8d5c34;stop-opacity:1"
   offset="1"
   id="stop28" />
	</linearGradient>
	
		
	
	<linearGradient
   x1="32.786098"
   y1="138.31641"
   x2="666.09772"
   y2="138.31641"
   id="XMLID_5_"
   gradientUnits="userSpaceOnUse">
		<stop
   style="stop-color:#8d5c34;stop-opacity:1"
   offset="0"
   id="stop35" />
		<stop
   style="stop-color:#d1b38b;stop-opacity:1"
   offset="0.0333"
   id="stop37" />
		<stop
   style="stop-color:#e3cba4;stop-opacity:1"
   offset="0.91430002"
   id="stop39" />
		<stop
   style="stop-color:#8d5c34;stop-opacity:1"
   offset="1"
   id="stop41" />
	</linearGradient>
	
		
	<linearGradient
   x1="8.7383003"
   y1="136.83299"
   x2="34.118198"
   y2="136.83299"
   id="XMLID_6_"
   gradientUnits="userSpaceOnUse">
		<stop
   style="stop-color:#8d5c34;stop-opacity:1"
   offset="0.1286"
   id="stop46" />
		<stop
   style="stop-color:#e8d0a9;stop-opacity:1"
   offset="0.29049999"
   id="stop48" />
		<stop
   style="stop-color:#e3cba4;stop-opacity:1"
   offset="0.5952"
   id="stop50" />
		<stop
   style="stop-color:#8d5c34;stop-opacity:1"
   offset="1"
   id="stop52" />
	</linearGradient>
	
		
	
	

		
			
		
	
			
			
		<filter
   id="filter3194"><feGaussianBlur
     id="feGaussianBlur3196"
     stdDeviation="2.3429776"
     inkscape:collect="always" /></filter><linearGradient
   x1="655.94531"
   y1="138.34129"
   x2="683.30658"
   y2="138.34129"
   id="linearGradient3209"
   xlink:href="#XMLID_4_"
   gradientUnits="userSpaceOnUse" /><linearGradient
   x1="32.786098"
   y1="138.31641"
   x2="666.09772"
   y2="138.31641"
   id="linearGradient3211"
   xlink:href="#XMLID_5_"
   gradientUnits="userSpaceOnUse" /><linearGradient
   x1="8.7383003"
   y1="136.83299"
   x2="34.118198"
   y2="136.83299"
   id="linearGradient3213"
   xlink:href="#XMLID_6_"
   gradientUnits="userSpaceOnUse" /></defs>



<g
   transform="translate(-7.9554996,-7.9526367)"
   id="g3198"><path
     d="M 674.75984,10.196323 C 672.49184,9.8373225 670.00784,9.8373225 667.12684,10.196323 C 664.21084,10.520323 660.17984,11.384323 656.65184,12.391323 C 656.65184,13.616323 656.65184,14.875323 656.65184,16.135323 L 656.65184,16.135323 L 637.17484,15.991323 L 626.15884,15.344323 L 615.14284,15.668323 L 605.02584,15.883323 L 605.02584,15.883323 C 605.02584,15.883323 606.14284,25.387323 606.03384,28.447323 C 605.70984,40.147323 602.50684,26.683323 598.33084,38.635323 C 596.17084,44.827323 596.85384,47.420323 596.85384,47.420323 C 596.85384,47.420323 591.52584,45.079323 589.76184,40.651323 C 580.68984,17.827323 579.32284,51.451323 570.75384,42.415323 C 568.52184,40.075323 569.09784,38.527323 568.91784,34.315323 C 568.73784,30.103323 570.14284,30.211323 569.99784,25.567323 C 569.89084,20.923323 568.41384,15.775323 568.41384,15.775323 C 568.41384,15.775323 552.78884,16.495323 534.53684,16.351323 C 516.28484,16.171323 513.08184,16.027323 495.04484,15.667323 C 477.00984,15.306323 462.82584,15.450323 462.82584,15.450323 C 426.75384,15.378323 444.17784,15.343323 440.72184,15.450323 C 437.19284,15.522323 432.44084,15.990323 429.16484,16.242323 C 425.92484,16.458323 423.40484,16.962323 421.31684,16.889323 C 421.02784,17.393323 421.02784,18.545323 421.31684,20.418323 C 421.56884,22.289323 423.04384,25.817323 422.90084,28.014323 C 422.72084,30.174323 421.89284,31.866323 420.34384,33.270323 C 421.02784,31.290323 421.35184,29.670323 421.31684,28.301323 C 421.24484,26.898323 420.48884,26.969323 420.01984,25.098323 C 419.58784,23.154323 419.19184,20.490323 418.75984,16.889323 C 415.66384,16.854323 412.20684,16.637323 408.24784,16.314323 C 404.32384,15.954323 400.93884,14.694323 395.21684,14.838323 C 389.49184,15.018323 379.91584,16.817323 374.22884,17.178323 C 368.57684,17.537323 364.40084,17.430323 361.48484,16.889323 C 358.06484,16.061323 353.88884,15.594323 348.77584,15.450323 C 343.62884,15.305323 336.17584,15.738323 330.95684,16.026323 C 325.77284,16.314323 323.79284,16.854323 317.92484,17.178323 C 312.02084,17.537323 302.12084,18.114323 295.96484,18.077323 L 295.96484,18.077323 C 289.84484,18.006323 286.02884,16.781323 281.31284,16.889323 C 276.63284,16.998323 272.24084,17.574323 267.95684,18.654323 C 267.70484,19.446323 267.27284,20.382323 266.69684,21.570323 C 266.12084,22.758323 264.78884,23.514323 264.46484,25.674323 C 264.17684,27.834323 265.00484,32.873323 264.78884,34.422323 C 264.57284,35.934323 264.06884,36.041323 263.20484,34.709323 C 263.70884,32.117323 263.63684,29.813323 262.88084,27.725323 C 262.12484,25.602323 259.71284,23.766323 258.74084,22.145323 C 257.80484,20.526323 259.02884,19.049323 257.15684,18.078323 C 255.28484,17.070323 253.19684,16.530323 247.61684,16.314323 C 241.96484,16.133323 230.15684,16.710323 223.74884,16.889323 C 217.37684,17.106323 215.14484,17.070323 209.52884,17.465323 C 203.91284,17.861323 219.06884,19.121323 190.08884,19.230323 C 182.27684,19.338323 174.46484,19.482323 166.65284,19.626323 C 158.08484,19.410323 149.51684,19.158323 140.94884,18.906323 C 135.62084,19.014323 130.29284,19.122323 124.92884,19.266323 C 123.05684,20.598323 121.18484,21.965323 119.31284,23.334323 C 119.31284,23.334323 119.38484,22.721323 119.20484,23.981323 C 118.98884,25.277323 118.48484,28.481323 118.48484,28.481323 C 117.15284,30.065323 115.82084,31.649323 114.48884,33.269323 C 114.48884,33.269323 115.10084,31.685323 114.48884,29.597323 C 113.87684,27.472323 112.58084,27.544323 112.07684,24.808323 C 111.57284,22.037323 112.47284,18.544323 112.47284,18.544323 C 104.04884,18.437323 95.624844,18.292323 87.200844,18.148323 C 80.936844,18.040323 74.636844,17.932323 68.336844,17.788323 C 38.996839,17.896323 110.27684,18.940323 35.936839,18.076323 C 36.044839,16.348323 36.152839,14.585323 36.260839,12.820323 C 33.272839,10.516323 30.032839,9.4363225 26.396839,9.5813225 L 26.396839,9.5813225 C 22.760839,9.7613225 18.908839,11.093323 14.624839,13.685323 C 13.151839,97.711323 11.675839,181.73532 10.199839,265.79532 C 10.343839,266.01132 11.495839,266.29932 13.691839,266.69432 C 15.887839,267.09032 19.019839,267.55832 23.231839,268.13432 C 23.843839,268.89032 24.491839,269.68232 25.139839,270.47432 C 28.235839,270.58232 30.719839,270.40232 32.771839,269.89832 C 34.823839,269.39432 36.263839,268.63832 37.235839,267.55832 C 37.055839,265.25432 36.875839,262.91432 36.659839,260.57532 C 44.795839,260.68232 52.967839,260.79132 61.139844,260.93432 C 73.703844,261.29432 86.267844,261.65432 98.831844,262.05032 C 109.27184,261.83432 119.71184,261.58232 130.15184,261.33032 C 130.15184,259.85332 130.15184,258.37832 130.15184,256.90132 C 131.08784,253.33832 132.02384,249.77332 132.95984,246.21032 C 133.75184,248.29832 134.54384,250.38632 135.33584,252.47432 C 135.22784,255.17432 135.08384,257.87432 134.93984,260.57532 C 169.10384,260.39432 193.25984,260.50332 208.77584,260.93432 C 224.11184,261.36732 220.54784,263.13032 226.70384,263.16632 C 232.85984,263.20232 240.27584,261.47432 245.45984,261.14932 C 250.64384,260.79032 253.12784,261.25732 257.55584,261.14932 C 261.98384,260.96932 266.69984,260.71732 271.88384,260.25032 C 271.88384,258.05432 272.09984,256.21832 272.49584,254.70632 C 272.92784,253.19332 273.57584,252.04232 274.40384,251.21432 C 273.79184,253.15832 273.68384,254.99432 274.07984,256.75832 C 274.54784,258.52232 275.48384,260.14232 276.95984,261.72632 C 282.93584,262.33832 288.58784,262.73432 294.13184,262.87832 C 299.71184,263.02232 304.89584,262.95032 310.04384,262.59032 C 309.39584,260.93432 309.17984,259.38632 309.39584,257.91032 C 309.64784,256.43332 310.94384,255.78632 311.30384,253.84232 L 311.30384,253.84232 C 311.69984,251.86232 311.80784,249.37832 311.62784,246.24632 C 311.62784,246.85732 311.73584,247.72232 311.95184,248.87432 C 312.16784,249.99032 312.70784,251.53832 312.92384,252.94132 C 313.10384,254.38132 312.59984,255.89332 313.21184,257.33432 C 313.85984,258.77332 314.00384,260.39432 316.73984,261.43832 C 319.47584,262.44632 324.73184,263.27432 329.44784,263.45532 C 334.16384,263.67132 341.61584,263.67132 344.71184,262.59132 C 347.80784,261.51132 346.15184,257.11932 347.91584,257.04732 C 349.67984,257.01132 351.69484,261.43932 355.22484,262.30332 C 358.75184,263.13132 364.07984,262.05132 368.90484,262.01532 C 373.72984,261.97932 378.62384,261.97932 383.84384,262.01532 C 384.77984,260.79132 385.60784,259.42332 386.40084,257.91132 C 387.19184,256.39832 387.62384,252.90732 388.63084,252.94232 C 389.64084,253.01432 392.23284,257.01032 392.44684,258.19932 C 392.66384,259.38732 389.38784,258.99132 389.89184,259.96332 C 390.43084,260.93532 391.22384,263.56332 395.61484,264.06732 C 400.07984,264.53632 406.84684,264.17532 416.31584,262.87932 C 417.10684,258.77532 418.25884,256.75932 419.80784,256.75932 C 421.35484,256.75932 422.97584,261.72732 425.53084,262.87932 C 428.01484,263.99532 424.45084,264.03032 464.80784,264.24732 L 464.80784,264.24732 L 500.91484,263.52632 L 541.81084,263.16732 L 541.81084,263.16732 C 541.81084,263.16732 541.12484,259.38732 541.41484,256.90232 C 541.73884,254.41932 539.93784,251.53932 541.01884,250.99932 C 542.13584,250.45932 544.94284,255.89532 547.42684,254.67132 C 549.94684,253.48332 552.25084,248.04732 552.25084,248.04732 C 552.25084,248.04732 554.98684,245.67132 556.28184,246.93132 C 557.57884,248.22732 557.86584,250.24432 558.26184,253.59132 C 558.69384,256.90332 556.85784,257.62332 557.86584,260.21532 C 558.87384,262.77132 562.29384,263.88732 562.29384,263.88732 L 562.29384,263.88732 L 602.79384,265.36332 L 619.24684,265.00432 L 619.24684,265.00432 C 660.28584,265.25632 667.77384,264.35632 667.77384,264.35632 C 667.77384,264.35632 670.07884,267.20132 673.17384,267.56032 C 676.30684,267.88432 680.55484,267.52432 686.20484,266.40932 C 685.16184,183.24932 684.11684,100.09032 683.03684,16.892323 C 681.30984,16.029323 679.86884,15.345323 678.57384,14.841323 C 677.31384,14.372323 676.26884,14.085323 675.40584,13.976323 C 675.19184,12.715323 674.97684,11.455323 674.75984,10.196323 L 674.75984,10.196323 z M 681.77984,17.467323 C 678.53984,18.115323 675.44384,18.295323 672.24084,18.079323 C 669.00084,17.827323 664.93184,16.855323 662.66484,16.027323 C 660.43284,15.199323 659.20784,14.226323 658.84884,13.111323 C 659.02884,20.527323 659.53284,34.207323 660.46784,54.871323 C 661.36784,75.642323 662.77284,101.23932 664.28384,136.37532 C 665.76084,171.65432 667.45184,213.55932 669.35984,264.35432 C 671.41284,265.47032 673.67984,266.04632 676.34384,266.08332 C 679.04284,266.15432 681.95884,265.68732 685.27184,264.64332 C 684.11984,182.27532 682.96684,99.871323 681.77984,17.467323 L 681.77984,17.467323 z M 667.41584,262.77132 C 553.51184,262.19532 593.97684,263.52732 576.73184,262.77132 C 576.73184,262.77132 567.40784,262.98732 563.48384,261.69132 C 559.59484,260.39532 561.97184,261.04432 561.07184,257.62432 C 560.17184,254.20432 560.99984,251.54032 559.88284,248.04832 C 558.76784,244.55632 556.67984,243.62032 556.67984,243.62032 C 556.67984,243.62032 551.74784,245.09632 549.44384,247.32832 C 547.14084,249.52332 547.42784,252.47532 547.42784,252.47532 C 547.42784,252.47532 542.74784,247.03932 540.62284,247.68732 C 538.53484,248.33532 539.50784,251.64732 539.00384,255.06732 C 538.53484,258.45232 538.60784,261.33232 538.60784,261.33232 C 521.36384,260.57632 491.69984,261.33232 491.69984,261.33232 C 478.99284,261.54832 466.28384,261.80032 453.57684,262.05232 C 413.58084,261.87232 430.68084,263.13232 427.83684,262.01632 C 424.95584,260.86432 422.72584,256.32832 420.85284,255.28532 C 418.98184,254.27632 417.82984,254.70932 416.71184,255.86032 C 415.59684,257.04832 414.76884,259.17332 414.15684,262.30432 C 409.61984,262.70032 405.76784,262.88032 402.38584,262.88032 C 399.03584,262.88032 395.68884,262.84432 394.14184,262.30432 C 392.59284,261.76432 393.06184,260.39632 393.16884,259.67632 C 393.27584,258.95632 394.96984,258.92032 394.75284,257.91232 C 394.53584,256.90332 393.02384,254.67232 391.90884,253.55632 C 390.75684,252.40432 389.17284,250.82032 388.09284,251.21632 C 387.01284,251.61232 386.32884,254.23932 385.53584,255.86032 C 384.70784,257.48032 383.98884,259.13632 383.30584,260.82932 C 377.22184,260.64832 372.10884,260.54132 367.71584,260.54132 C 363.32484,260.54132 359.90484,261.36932 357.20384,260.82932 C 354.57684,260.28932 353.42484,258.41732 351.80584,257.33732 C 350.22184,256.25732 348.81784,254.52832 347.66484,254.42132 L 347.66484,254.42132 C 346.54884,254.31332 345.75684,255.68132 345.14484,256.76132 C 344.49684,257.84132 346.25984,259.96532 343.84784,260.82932 C 341.43584,261.72832 334.95584,262.16132 330.81584,262.01732 C 326.67584,261.83732 321.99584,260.90132 319.29584,259.96532 C 316.59584,259.02832 315.73184,258.59732 314.83184,256.47332 C 313.93184,254.31332 314.61584,249.48932 313.85984,247.11332 C 313.13984,244.77332 311.98784,243.22532 310.36784,242.43332 C 310.90784,245.49432 311.01584,248.08532 310.69184,250.31732 C 310.36784,252.58632 309.07184,254.06132 308.45984,255.86132 C 307.88384,257.69732 307.45184,259.42532 307.19984,261.15332 C 306.55184,261.18932 303.92384,261.18932 299.24384,261.15332 C 294.52784,261.08232 287.97584,261.00932 279.19184,260.83032 C 277.75184,259.31732 276.70784,257.59032 276.02384,255.57332 C 275.33984,253.55732 275.01584,251.36132 275.05184,248.87832 C 273.71984,249.95832 272.67584,251.29032 271.88384,252.94532 C 271.09184,254.63732 270.55184,256.54632 270.29984,258.81332 C 258.27584,258.74132 248.69984,258.92132 241.03184,259.38932 C 233.39984,259.82132 231.85184,261.36932 226.23584,261.33332 C 220.65584,261.26132 232.28384,259.78532 200.96384,259.28032 C 193.79984,258.99332 186.63584,258.70532 179.47184,258.38132 C 170.00384,258.38132 160.49984,258.38132 150.99584,258.38132 C 146.71184,258.27332 142.42784,258.12932 138.14384,257.98532 C 137.63984,255.42932 137.09984,252.83832 136.55984,250.24632 C 135.08384,247.94132 133.60784,245.60132 132.13184,243.26232 C 132.13184,243.26232 130.04384,247.76232 128.92784,251.36232 C 127.81184,254.96332 127.73984,258.38332 127.73984,258.38332 C 120.25184,258.85132 112.76384,259.35532 105.27584,259.85932 C 73.487844,259.35532 119.92784,258.42032 36.911839,258.52732 L 36.911839,258.52732 C 36.515839,178.96732 36.083839,99.408323 35.651839,19.811323 C 51.203839,20.244323 66.791844,20.676323 82.379844,21.108323 C 91.739844,20.891323 101.09984,20.639323 110.49584,20.387323 C 110.49584,20.387323 109.37984,23.772323 109.66784,26.291323 C 109.99184,28.775323 111.17984,27.551323 111.68384,30.323323 C 112.18784,33.095323 110.78384,34.283323 111.68384,37.344323 C 112.58384,40.367323 115.28384,42.491323 115.28384,42.491323 C 115.28384,42.491323 113.69984,37.883323 114.88784,35.111323 C 116.11184,32.340323 118.48784,33.995323 120.10784,31.439323 C 121.72784,28.847323 119.31584,27.298323 121.29584,24.814323 C 123.31184,22.331323 128.13584,21.503323 128.13584,21.503323 C 138.97184,21.503323 149.80784,21.503323 160.64384,21.503323 C 171.15584,21.610323 180.51584,21.466323 189.15584,20.998323 C 197.83184,20.494323 205.96784,19.162323 212.05184,18.658323 C 218.13584,18.154323 219.07184,18.154323 225.33584,18.082323 C 231.67184,17.974323 244.41584,17.686323 249.52784,18.082323 C 254.60384,18.478323 254.35184,19.558323 255.57584,20.423323 C 256.79984,21.250323 255.93584,21.359323 256.83584,23.050323 C 257.77184,24.706323 260.18384,27.874323 260.97584,30.359323 C 261.76784,32.806323 260.83184,36.191323 261.62384,37.630323 C 262.45184,39.070323 265.04384,39.790323 265.76384,38.818323 C 266.44784,37.809323 265.54784,34.246323 265.76384,31.797323 C 265.97984,29.350323 266.23184,26.182323 267.02384,24.201323 C 267.81584,22.258323 268.96784,20.926323 270.51584,20.097323 C 275.26784,19.233323 279.33584,18.765323 282.93584,18.657323 C 286.49984,18.549323 286.42784,19.413323 291.82784,19.521323 C 297.33584,19.628323 307.52384,19.665323 315.37184,19.233323 C 323.25584,18.800323 332.79584,17.181323 338.59184,16.892323 L 338.59184,16.892323 C 344.35184,16.605323 345.10784,17.037323 349.75184,17.468323 C 354.39684,17.937323 360.73184,19.304323 366.27484,19.521323 C 371.85484,19.737323 377.47184,19.197323 382.83584,18.657323 C 388.16384,18.117323 394.28284,16.426323 398.09984,16.317323 C 401.87884,16.209323 402.27584,17.577323 405.40884,18.081323 C 408.57684,18.549323 412.32084,18.945323 416.85584,19.233323 C 418.51184,22.365323 419.44784,25.353323 419.73684,28.304323 C 419.98884,31.220323 419.59184,34.029323 418.43984,36.765323 C 421.39284,33.884323 423.37184,31.580323 424.48884,29.744323 C 425.60384,27.944323 425.38884,27.765323 425.13684,25.964323 C 424.88484,24.128323 424.12684,21.824323 422.90484,18.944323 C 423.87584,18.440323 426.39684,18.080323 430.53584,17.792323 C 434.67684,17.468323 427.00884,16.892323 464.69984,16.892323 L 464.69984,16.892323 L 491.77184,16.785323 L 531.76784,17.577323 L 550.45184,17.254323 L 567.33684,17.002323 L 567.33684,17.002323 C 567.33684,17.002323 568.37984,22.077323 568.34484,27.153323 C 568.27284,32.193323 566.65384,32.804323 567.11984,37.269323 C 567.55384,41.697323 567.37184,42.884323 570.18084,44.901323 C 582.95984,53.972323 578.45984,20.277323 589.94484,42.777323 C 592.64584,48.069323 598.62084,51.884323 598.62084,51.884323 C 598.62084,51.884323 597.90184,47.456323 599.84584,40.761323 C 603.19384,29.421323 607.69384,39.753323 607.22684,28.556323 C 607.08184,25.569323 606.07484,17.361323 606.07484,17.361323 C 606.07484,17.361323 611.76284,17.073323 624.68584,16.569323 C 637.60984,16.101323 656.65484,17.793323 656.65484,17.793323 C 660.21484,99.440323 663.81684,181.08732 667.41584,262.77132 L 667.41584,262.77132 z M 673.49984,11.635323 C 673.89584,12.895323 674.32784,14.156323 674.75984,15.451323 C 676.23684,15.810323 677.71084,16.207323 679.22484,16.603323 C 675.80484,16.783323 672.67184,16.603323 669.68384,16.027323 C 666.69584,15.416323 663.99584,14.478323 661.40484,13.111323 C 664.06884,12.175323 666.37184,11.599323 668.38884,11.347323 C 670.43984,11.096323 672.09584,11.203323 673.49984,11.635323 L 673.49984,11.635323 z M 11.711839,265.21932 C 13.475839,264.39132 15.671839,263.92332 18.371839,263.77932 C 21.107839,263.59932 25.031839,263.85132 27.947839,264.35532 C 30.827839,264.82432 33.311839,265.61532 35.579839,266.69532 C 34.283839,267.59532 32.915839,268.20832 31.439839,268.42432 C 29.927839,268.67632 28.379839,268.56832 26.651839,268.13632 C 25.607839,267.45232 24.563839,266.76832 23.483839,266.08432 C 19.559839,265.79532 15.635839,265.50732 11.711839,265.21932 L 11.711839,265.21932 z M 35.579839,264.35532 C 35.147839,240.34332 34.823839,208.19532 34.607839,166.18332 C 34.391839,124.02832 34.283839,74.168323 34.283839,13.975323 C 33.527839,12.068323 31.655839,11.204323 28.559839,11.348323 C 25.463839,11.492323 21.287839,12.643323 15.851839,14.840323 C 14.483839,97.495323 13.115839,180.18732 11.711839,262.87932 C 15.887839,261.94232 19.523839,261.47532 22.835839,261.43932 C 26.147839,261.36832 29.279839,262.08732 31.439839,262.59132 C 33.563839,263.09532 34.931839,263.67132 35.579839,264.35532 L 35.579839,264.35532 z "
     style="fill:#808080;fill-rule:evenodd;stroke:#000000;stroke-width:0.036;stroke-miterlimit:10;filter:url(#filter3194)"
     id="path2220" /><path
     d="M 672.578,8.643 C 670.31,8.284 667.826,8.284 664.945,8.643 C 662.029,8.967 657.998,9.831 654.47,10.838 C 654.47,12.063 654.47,13.322 654.47,14.582 L 654.47,14.582 L 634.993,14.438 L 623.977,13.791 L 612.961,14.115 L 602.844,14.33 L 602.844,14.33 C 602.844,14.33 603.961,23.834 603.852,26.894 C 603.528,38.594 600.325,25.13 596.149,37.082 C 593.989,43.274 594.672,45.867 594.672,45.867 C 594.672,45.867 589.344,43.526 587.58,39.098 C 578.508,16.274 577.141,49.898 568.572,40.862 C 566.34,38.522 566.916,36.974 566.736,32.762 C 566.556,28.55 567.961,28.658 567.816,24.014 C 567.709,19.37 566.232,14.222 566.232,14.222 C 566.232,14.222 550.607,14.942 532.355,14.798 C 514.103,14.618 510.9,14.474 492.863,14.114 C 474.828,13.753 460.644,13.897 460.644,13.897 C 424.572,13.825 441.996,13.79 438.54,13.897 C 435.011,13.969 430.259,14.437 426.983,14.689 C 423.743,14.905 421.223,15.409 419.135,15.336 C 418.846,15.84 418.846,16.992 419.135,18.865 C 419.387,20.736 420.862,24.264 420.719,26.461 C 420.539,28.621 419.711,30.313 418.162,31.717 C 418.846,29.737 419.17,28.117 419.135,26.748 C 419.063,25.345 418.307,25.416 417.838,23.545 C 417.406,21.601 417.01,18.937 416.578,15.336 C 413.482,15.301 410.025,15.084 406.066,14.761 C 402.142,14.401 398.757,13.141 393.035,13.285 C 387.31,13.465 377.734,15.264 372.047,15.625 C 366.395,15.984 362.219,15.877 359.303,15.336 C 355.883,14.508 351.707,14.041 346.594,13.897 C 341.447,13.752 333.994,14.185 328.775,14.473 C 323.591,14.761 321.611,15.301 315.743,15.625 C 309.839,15.984 299.939,16.561 293.783,16.524 L 293.783,16.524 C 287.663,16.453 283.847,15.228 279.131,15.336 C 274.451,15.445 270.059,16.021 265.775,17.101 C 265.523,17.893 265.091,18.829 264.515,20.017 C 263.939,21.205 262.607,21.961 262.283,24.121 C 261.995,26.281 262.823,31.32 262.607,32.869 C 262.391,34.381 261.887,34.488 261.023,33.156 C 261.527,30.564 261.455,28.26 260.699,26.172 C 259.943,24.049 257.531,22.213 256.559,20.592 C 255.623,18.973 256.847,17.496 254.975,16.525 C 253.103,15.517 251.015,14.977 245.435,14.761 C 239.783,14.58 227.975,15.157 221.567,15.336 C 215.195,15.553 212.963,15.517 207.347,15.912 C 201.731,16.308 216.887,17.568 187.907,17.677 C 180.095,17.785 172.283,17.929 164.471,18.073 C 155.903,17.857 147.335,17.605 138.767,17.353 C 133.439,17.461 128.111,17.569 122.747,17.713 C 120.875,19.045 119.003,20.412 117.131,21.781 C 117.131,21.781 117.203,21.168 117.023,22.428 C 116.807,23.724 116.303,26.928 116.303,26.928 C 114.971,28.512 113.639,30.096 112.307,31.716 C 112.307,31.716 112.919,30.132 112.307,28.044 C 111.695,25.919 110.399,25.991 109.895,23.255 C 109.391,20.484 110.291,16.991 110.291,16.991 C 101.867,16.884 93.443,16.739 85.019,16.595 C 78.755,16.487 72.455,16.379 66.155,16.235 C 36.815,16.343 108.095,17.387 33.755,16.523 C 33.863,14.795 33.971,13.032 34.079,11.267 C 31.091,8.963 27.851,7.883 24.215,8.028 L 24.215,8.028 C 20.579,8.208 16.727,9.54 12.443,12.132 C 10.97,96.158 9.494,180.182 8.018,264.242 C 8.162,264.458 9.314,264.746 11.51,265.141 C 13.706,265.537 16.838,266.005 21.05,266.581 C 21.662,267.337 22.31,268.129 22.958,268.921 C 26.054,269.029 28.538,268.849 30.59,268.345 C 32.642,267.841 34.082,267.085 35.054,266.005 C 34.874,263.701 34.694,261.361 34.478,259.022 C 42.614,259.129 50.786,259.238 58.958,259.381 C 71.522,259.741 84.086,260.101 96.65,260.497 C 107.09,260.281 117.53,260.029 127.97,259.777 C 127.97,258.3 127.97,256.825 127.97,255.348 C 128.906,251.785 129.842,248.22 130.778,244.657 C 131.57,246.745 132.362,248.833 133.154,250.921 C 133.046,253.621 132.902,256.321 132.758,259.022 C 166.922,258.841 191.078,258.95 206.594,259.381 C 221.93,259.814 218.366,261.577 224.522,261.613 C 230.678,261.649 238.094,259.921 243.278,259.596 C 248.462,259.237 250.946,259.704 255.374,259.596 C 259.802,259.416 264.518,259.164 269.702,258.697 C 269.702,256.501 269.918,254.665 270.314,253.153 C 270.746,251.64 271.394,250.489 272.222,249.661 C 271.61,251.605 271.502,253.441 271.898,255.205 C 272.366,256.969 273.302,258.589 274.778,260.173 C 280.754,260.785 286.406,261.181 291.95,261.325 C 297.53,261.469 302.714,261.397 307.862,261.037 C 307.214,259.381 306.998,257.833 307.214,256.357 C 307.466,254.88 308.762,254.233 309.122,252.289 L 309.122,252.289 C 309.518,250.309 309.626,247.825 309.446,244.693 C 309.446,245.304 309.554,246.169 309.77,247.321 C 309.986,248.437 310.526,249.985 310.742,251.388 C 310.922,252.828 310.418,254.34 311.03,255.781 C 311.678,257.22 311.822,258.841 314.558,259.885 C 317.294,260.893 322.55,261.721 327.266,261.902 C 331.982,262.118 339.434,262.118 342.53,261.038 C 345.626,259.958 343.97,255.566 345.734,255.494 C 347.498,255.458 349.513,259.886 353.043,260.75 C 356.57,261.578 361.898,260.498 366.723,260.462 C 371.548,260.426 376.442,260.426 381.662,260.462 C 382.598,259.238 383.426,257.87 384.219,256.358 C 385.01,254.845 385.442,251.354 386.449,251.389 C 387.459,251.461 390.051,255.457 390.265,256.646 C 390.482,257.834 387.206,257.438 387.71,258.41 C 388.249,259.382 389.042,262.01 393.433,262.514 C 397.898,262.983 404.665,262.622 414.134,261.326 C 414.925,257.222 416.077,255.206 417.626,255.206 C 419.173,255.206 420.794,260.174 423.349,261.326 C 425.833,262.442 422.269,262.477 462.626,262.694 L 462.626,262.694 L 498.733,261.973 L 539.629,261.614 L 539.629,261.614 C 539.629,261.614 538.943,257.834 539.233,255.349 C 539.557,252.866 537.756,249.986 538.837,249.446 C 539.954,248.906 542.761,254.342 545.245,253.118 C 547.765,251.93 550.069,246.494 550.069,246.494 C 550.069,246.494 552.805,244.118 554.1,245.378 C 555.397,246.674 555.684,248.691 556.08,252.038 C 556.512,255.35 554.676,256.07 555.684,258.662 C 556.692,261.218 560.112,262.334 560.112,262.334 L 560.112,262.334 L 600.612,263.81 L 617.065,263.451 L 617.065,263.451 C 658.104,263.703 665.592,262.803 665.592,262.803 C 665.592,262.803 667.897,265.648 670.992,266.007 C 674.125,266.331 678.373,265.971 684.023,264.856 C 682.98,181.696 681.935,98.537 680.855,15.339 C 679.128,14.476 677.687,13.792 676.392,13.288 C 675.132,12.819 674.087,12.532 673.224,12.423 C 673.01,11.162 672.795,9.902 672.578,8.643 L 672.578,8.643 z "
     style="fill-rule:evenodd"
     id="path13" /><path
     d="M 672.578,8.643 C 670.31,8.284 667.826,8.284 664.945,8.643 C 662.029,8.967 657.998,9.831 654.47,10.838 C 654.47,12.063 654.47,13.322 654.47,14.582 L 654.47,14.582 L 634.993,14.438 L 623.977,13.791 L 612.961,14.115 L 602.844,14.33 L 602.844,14.33 C 602.844,14.33 603.961,23.834 603.852,26.894 C 603.528,38.594 600.325,25.13 596.149,37.082 C 593.989,43.274 594.672,45.867 594.672,45.867 C 594.672,45.867 589.344,43.526 587.58,39.098 C 578.508,16.274 577.141,49.898 568.572,40.862 C 566.34,38.522 566.916,36.974 566.736,32.762 C 566.556,28.55 567.961,28.658 567.816,24.014 C 567.709,19.37 566.232,14.222 566.232,14.222 C 566.232,14.222 550.607,14.942 532.355,14.798 C 514.103,14.618 510.9,14.474 492.863,14.114 C 474.828,13.753 460.644,13.897 460.644,13.897 C 424.572,13.825 441.996,13.79 438.54,13.897 C 435.011,13.969 430.259,14.437 426.983,14.689 C 423.743,14.905 421.223,15.409 419.135,15.336 C 418.846,15.84 418.846,16.992 419.135,18.865 C 419.387,20.736 420.862,24.264 420.719,26.461 C 420.539,28.621 419.711,30.313 418.162,31.717 C 418.846,29.737 419.17,28.117 419.135,26.748 C 419.063,25.345 418.307,25.416 417.838,23.545 C 417.406,21.601 417.01,18.937 416.578,15.336 C 413.482,15.301 410.025,15.084 406.066,14.761 C 402.142,14.401 398.757,13.141 393.035,13.285 C 387.31,13.465 377.734,15.264 372.047,15.625 C 366.395,15.984 362.219,15.877 359.303,15.336 C 355.883,14.508 351.707,14.041 346.594,13.897 C 341.447,13.752 333.994,14.185 328.775,14.473 C 323.591,14.761 321.611,15.301 315.743,15.625 C 309.839,15.984 299.939,16.561 293.783,16.524 L 293.783,16.524 C 287.663,16.453 283.847,15.228 279.131,15.336 C 274.451,15.445 270.059,16.021 265.775,17.101 C 265.523,17.893 265.091,18.829 264.515,20.017 C 263.939,21.205 262.607,21.961 262.283,24.121 C 261.995,26.281 262.823,31.32 262.607,32.869 C 262.391,34.381 261.887,34.488 261.023,33.156 C 261.527,30.564 261.455,28.26 260.699,26.172 C 259.943,24.049 257.531,22.213 256.559,20.592 C 255.623,18.973 256.847,17.496 254.975,16.525 C 253.103,15.517 251.015,14.977 245.435,14.761 C 239.783,14.58 227.975,15.157 221.567,15.336 C 215.195,15.553 212.963,15.517 207.347,15.912 C 201.731,16.308 216.887,17.568 187.907,17.677 C 180.095,17.785 172.283,17.929 164.471,18.073 C 155.903,17.857 147.335,17.605 138.767,17.353 C 133.439,17.461 128.111,17.569 122.747,17.713 C 120.875,19.045 119.003,20.412 117.131,21.781 C 117.131,21.781 117.203,21.168 117.023,22.428 C 116.807,23.724 116.303,26.928 116.303,26.928 C 114.971,28.512 113.639,30.096 112.307,31.716 C 112.307,31.716 112.919,30.132 112.307,28.044 C 111.695,25.919 110.399,25.991 109.895,23.255 C 109.391,20.484 110.291,16.991 110.291,16.991 C 101.867,16.884 93.443,16.739 85.019,16.595 C 78.755,16.487 72.455,16.379 66.155,16.235 C 36.815,16.343 108.095,17.387 33.755,16.523 C 33.863,14.795 33.971,13.032 34.079,11.267 C 31.091,8.963 27.851,7.883 24.215,8.028 L 24.215,8.028 C 20.579,8.208 16.727,9.54 12.443,12.132 C 10.97,96.158 9.494,180.182 8.018,264.242 C 8.162,264.458 9.314,264.746 11.51,265.141 C 13.706,265.537 16.838,266.005 21.05,266.581 C 21.662,267.337 22.31,268.129 22.958,268.921 C 26.054,269.029 28.538,268.849 30.59,268.345 C 32.642,267.841 34.082,267.085 35.054,266.005 C 34.874,263.701 34.694,261.361 34.478,259.022 C 42.614,259.129 50.786,259.238 58.958,259.381 C 71.522,259.741 84.086,260.101 96.65,260.497 C 107.09,260.281 117.53,260.029 127.97,259.777 C 127.97,258.3 127.97,256.825 127.97,255.348 C 128.906,251.785 129.842,248.22 130.778,244.657 C 131.57,246.745 132.362,248.833 133.154,250.921 C 133.046,253.621 132.902,256.321 132.758,259.022 C 166.922,258.841 191.078,258.95 206.594,259.381 C 221.93,259.814 218.366,261.577 224.522,261.613 C 230.678,261.649 238.094,259.921 243.278,259.596 C 248.462,259.237 250.946,259.704 255.374,259.596 C 259.802,259.416 264.518,259.164 269.702,258.697 C 269.702,256.501 269.918,254.665 270.314,253.153 C 270.746,251.64 271.394,250.489 272.222,249.661 C 271.61,251.605 271.502,253.441 271.898,255.205 C 272.366,256.969 273.302,258.589 274.778,260.173 C 280.754,260.785 286.406,261.181 291.95,261.325 C 297.53,261.469 302.714,261.397 307.862,261.037 C 307.214,259.381 306.998,257.833 307.214,256.357 C 307.466,254.88 308.762,254.233 309.122,252.289 L 309.122,252.289 C 309.518,250.309 309.626,247.825 309.446,244.693 C 309.446,245.304 309.554,246.169 309.77,247.321 C 309.986,248.437 310.526,249.985 310.742,251.388 C 310.922,252.828 310.418,254.34 311.03,255.781 C 311.678,257.22 311.822,258.841 314.558,259.885 C 317.294,260.893 322.55,261.721 327.266,261.902 C 331.982,262.118 339.434,262.118 342.53,261.038 C 345.626,259.958 343.97,255.566 345.734,255.494 C 347.498,255.458 349.513,259.886 353.043,260.75 C 356.57,261.578 361.898,260.498 366.723,260.462 C 371.548,260.426 376.442,260.426 381.662,260.462 C 382.598,259.238 383.426,257.87 384.219,256.358 C 385.01,254.845 385.442,251.354 386.449,251.389 C 387.459,251.461 390.051,255.457 390.265,256.646 C 390.482,257.834 387.206,257.438 387.71,258.41 C 388.249,259.382 389.042,262.01 393.433,262.514 C 397.898,262.983 404.665,262.622 414.134,261.326 C 414.925,257.222 416.077,255.206 417.626,255.206 C 419.173,255.206 420.794,260.174 423.349,261.326 C 425.833,262.442 422.269,262.477 462.626,262.694 L 462.626,262.694 L 498.733,261.973 L 539.629,261.614 L 539.629,261.614 C 539.629,261.614 538.943,257.834 539.233,255.349 C 539.557,252.866 537.756,249.986 538.837,249.446 C 539.954,248.906 542.761,254.342 545.245,253.118 C 547.765,251.93 550.069,246.494 550.069,246.494 C 550.069,246.494 552.805,244.118 554.1,245.378 C 555.397,246.674 555.684,248.691 556.08,252.038 C 556.512,255.35 554.676,256.07 555.684,258.662 C 556.692,261.218 560.112,262.334 560.112,262.334 L 560.112,262.334 L 600.612,263.81 L 617.065,263.451 L 617.065,263.451 C 658.104,263.703 665.592,262.803 665.592,262.803 C 665.592,262.803 667.897,265.648 670.992,266.007 C 674.125,266.331 678.373,265.971 684.023,264.856 C 682.98,181.696 681.935,98.537 680.855,15.339 C 679.128,14.476 677.687,13.792 676.392,13.288 C 675.132,12.819 674.087,12.532 673.224,12.423 C 673.01,11.162 672.795,9.902 672.578,8.643 L 672.578,8.643 z "
     style="fill:none;stroke:#000000;stroke-width:0.036;stroke-miterlimit:10"
     id="path15" /><path
     d="M 680.57,15.662 C 680.642,48.026 680.857,83.99 681.361,125.787 C 681.757,167.582 682.406,212.834 683.306,264.061 L 683.306,264.061 C 679.921,265.286 676.861,265.969 673.982,265.826 C 671.101,265.681 668.509,264.854 666.207,263.342 L 666.207,263.342 L 655.945,10.838 L 655.945,10.838 C 657.277,11.918 659.33,12.926 661.959,13.863 C 664.514,14.726 668.438,16.022 671.643,16.346 C 674.701,16.599 677.727,16.418 680.57,15.662 L 680.57,15.662 z "
     style="fill:url(#linearGradient3209);fill-rule:evenodd;stroke:#000000;stroke-width:0.036;stroke-miterlimit:10"
     id="path30" /><path
     d="M 671.967,9.471 L 673.155,13.035 L 678.231,14.942 L 678.231,14.942 C 674.415,15.951 670.922,16.13 667.467,15.482 C 664.01,14.762 660.735,13.214 657.639,10.837 L 657.639,10.837 C 660.375,9.542 663.002,8.858 665.379,8.642 C 667.826,8.354 669.842,8.679 671.967,9.471 L 671.967,9.471 z "
     style="fill:#412318;fill-rule:evenodd;stroke:#000000;stroke-width:0.036;stroke-miterlimit:10"
     id="path32" /><path
     d="M 523.43,15.123 L 565.731,15.015 L 566.702,20.631 L 566.956,27.147 L 565.479,34.563 L 567.567,41.547 L 572.139,43.922 L 575.27,41.871 L 579.051,34.022 L 581.533,31.826 L 583.658,32.942 L 585.097,34.994 L 586.898,38.631 L 588.949,42.267 L 593.594,46.515 L 595.215,48.027 L 596.113,40.467 L 599.353,33.231 L 602.99,32.475 L 603.998,31.179 L 604.322,23.834 L 603.853,19.479 L 603.601,15.015 L 613.214,14.691 L 628.153,14.439 L 643.344,15.124 L 654.756,15.483 L 666.096,262.802 L 638.34,262.334 L 615.481,262.334 L 597.012,263.09 L 568.535,262.334 L 557.305,260.138 L 556.909,253.514 L 556.081,246.134 L 554.893,243.939 L 549.672,245.378 L 545.244,252.038 L 539.629,247.25 L 537.649,249.446 L 538.045,260.137 L 538.045,260.137 C 496.897,261.11 468.779,261.721 451.897,261.973 C 435.301,262.154 442.538,261.469 438.469,261.433 C 434.184,261.326 429.612,261.65 426.84,261.146 C 424.031,260.461 423.168,258.986 421.764,257.833 C 420.289,256.609 419.28,254.449 418.164,254.27 C 416.904,254.053 415.537,255.242 414.6,256.465 C 413.629,257.617 412.981,259.129 412.512,261.146 L 412.512,261.146 C 408.301,261.505 404.844,261.83 401.748,261.973 C 398.652,262.045 396.168,262.225 394.297,261.973 C 392.389,261.721 390.912,261.074 390.408,260.318 C 389.797,259.309 390.588,257.797 390.695,256.754 C 390.66,255.602 391.308,255.062 390.695,254.018 C 389.976,252.867 387.709,250.706 386.808,250.455 C 385.872,250.203 385.8,251.391 385.331,252.363 C 384.792,253.191 384.468,254.342 383.819,255.675 C 383.135,256.935 382.2,258.339 381.155,260.031 L 381.155,260.031 C 377.952,260.211 374.243,260.211 370.03,260.319 C 365.602,260.283 359.014,260.93 355.704,260.319 C 352.354,259.491 352.284,257.51 350.628,256.466 C 348.862,255.386 346.667,254.378 345.552,254.558 C 344.291,254.666 344.435,256.647 343.751,257.582 C 343.103,258.374 343.427,259.418 341.663,260.03 C 339.791,260.677 336.911,261.326 333.023,261.433 C 329.027,261.362 321.683,260.534 318.371,259.778 C 315.023,258.914 314.483,258.553 313.295,256.754 C 312.107,254.846 311.783,250.994 311.207,248.798 C 310.559,246.494 309.731,244.946 309.119,243.614 L 309.119,243.614 C 309.263,246.206 309.119,248.438 308.831,250.454 C 308.435,252.362 307.607,253.73 307.031,255.386 C 306.347,257.078 305.879,258.59 305.231,260.319 L 305.231,260.319 C 299.363,260.607 294.035,260.751 289.103,260.607 C 284.135,260.426 279.707,260.102 275.675,259.491 L 275.675,259.491 C 274.487,257.547 273.551,255.819 273.011,254.018 C 272.363,252.218 272.111,250.527 272.111,248.798 L 272.111,248.798 C 270.419,250.346 269.375,251.859 268.835,253.478 C 268.259,255.098 268.259,256.647 268.835,258.411 L 268.835,258.411 C 262.463,258.051 256.379,257.943 250.295,258.123 C 244.247,258.303 237.191,259.023 232.691,259.491 C 228.263,259.959 227.003,260.894 223.727,260.859 C 220.487,260.823 216.671,259.671 213.287,259.239 C 209.939,258.771 209.435,258.231 203.747,258.123 C 198.059,258.051 207.707,258.663 179.303,258.663 L 179.303,258.663 L 159.251,258.303 L 135.167,257.547 L 133.583,249.807 L 129.947,242.463 L 127.967,249.807 L 126.347,258.303 L 105.467,259.383 L 102.263,259.383 L 102.263,259.383 C 73.535,259.383 102.875,258.484 33.683,258.123 L 33.683,258.123 L 32.783,17.427 L 56.147,18.472 L 95.063,18.076 L 109.103,18.076 L 108.707,23.26 L 111.083,28.769 L 110.687,33.557 L 115.907,30.244 L 117.923,25.096 L 119.111,22.145 L 124.727,18.473 L 124.727,18.473 C 150.071,18.832 168.467,18.941 180.743,18.797 C 192.839,18.58 191.291,17.933 197.483,17.428 C 203.675,16.853 210.983,16.025 217.751,15.773 C 224.411,15.45 232.007,15.45 237.479,15.485 C 242.771,15.413 247.091,14.909 250.007,15.485 C 252.815,15.989 253.571,16.997 254.795,18.508 C 255.947,19.84 256.235,22.037 257.171,23.981 C 257.999,25.889 259.223,28.265 259.871,30.281 C 260.375,32.298 260.303,34.962 260.771,35.79 C 261.275,36.437 262.427,35.79 262.859,34.421 C 263.039,32.874 262.571,29.382 262.859,27.294 C 263.111,25.206 263.759,23.693 264.659,22.073 C 265.487,20.273 265.703,18.401 268.223,17.428 C 270.563,16.492 274.343,16.168 279.563,16.313 C 284.747,16.277 291.227,17.573 299.579,17.428 C 308.003,17.176 320.171,15.197 329.279,14.945 C 338.135,14.622 345.155,15.126 352.858,15.485 C 360.598,15.737 368.159,16.853 374.963,16.601 C 381.514,16.205 387.85,13.756 392.567,13.577 C 397.174,13.29 399.083,15.089 403.006,15.485 C 406.93,15.844 411.07,16.025 415.858,16.025 L 415.858,16.025 C 416.544,19.374 417.19,21.893 417.659,23.981 C 418.091,25.924 418.522,26.609 418.559,28.122 C 418.452,29.634 418.09,31.038 417.334,32.766 L 417.334,32.766 C 419.891,31.434 421.438,30.102 422.123,28.374 C 422.734,26.609 421.51,24.737 421.223,22.613 C 420.862,20.489 420.467,18.257 420.035,15.773 L 420.035,15.773 C 424.57,15.161 429.105,14.836 434.074,14.657 C 438.97,14.405 434.326,14.585 449.303,14.657 C 464.426,14.727 488.617,14.834 523.43,15.123 L 523.43,15.123 z "
     style="fill:url(#linearGradient3211);fill-rule:evenodd;stroke:#000000;stroke-width:0.036;stroke-miterlimit:10"
     id="path43" /><path
     d="M 33.218,12.207 C 33.29,81.867 33.398,136.551 33.542,179.174 C 33.758,221.582 33.902,249.59 34.118,264.998 L 34.118,264.998 C 31.454,263.234 28.862,262.046 26.054,261.434 C 23.354,260.714 20.618,260.894 17.702,261.147 C 14.858,261.291 11.87,261.974 8.738,262.802 L 8.738,262.802 L 13.238,13.035 L 13.238,13.035 C 16.514,11.342 19.25,10.154 21.59,9.471 C 23.93,8.715 25.406,8.426 27.278,8.895 C 29.222,9.398 31.202,10.371 33.218,12.207 L 33.218,12.207 z "
     style="fill:url(#linearGradient3213);fill-rule:evenodd;stroke:#000000;stroke-width:0.036;stroke-miterlimit:10"
     id="path54" /><path
     d="M 34.73,264.71 C 31.994,263.054 28.862,262.01 25.478,261.434 C 22.094,260.823 17.306,260.678 14.426,261.147 C 11.69,261.47 9.746,262.335 8.738,263.594 L 8.738,263.594 C 10.25,264.134 12.05,264.602 14.138,264.998 C 16.334,265.286 18.818,265.682 21.59,265.79 L 21.59,265.79 L 25.154,267.986 L 25.154,267.986 C 27.35,268.309 29.294,268.274 30.842,267.734 C 32.534,267.194 33.686,266.187 34.73,264.71 L 34.73,264.71 z "
     style="fill:#412318;fill-rule:evenodd;stroke:#000000;stroke-width:0.036;stroke-miterlimit:10"
     id="path56" /><path
     d="M 672.578,8.643 C 670.31,8.284 667.826,8.284 664.945,8.643 C 662.029,8.967 657.998,9.831 654.47,10.838 C 654.47,12.063 654.47,13.322 654.47,14.582 L 654.47,14.582 L 634.993,14.438 L 623.977,13.791 L 612.961,14.115 L 602.844,14.33 L 602.844,14.33 C 602.844,14.33 603.961,23.834 603.852,26.894 C 603.528,38.594 600.325,25.13 596.149,37.082 C 593.989,43.274 594.672,45.867 594.672,45.867 C 594.672,45.867 589.344,43.526 587.58,39.098 C 578.508,16.274 577.141,49.898 568.572,40.862 C 566.34,38.522 566.916,36.974 566.736,32.762 C 566.556,28.55 567.961,28.658 567.816,24.014 C 567.709,19.37 566.232,14.222 566.232,14.222 C 566.232,14.222 550.607,14.942 532.355,14.798 C 514.103,14.618 510.9,14.474 492.863,14.114 C 474.828,13.753 460.644,13.897 460.644,13.897 C 424.572,13.825 441.996,13.79 438.54,13.897 C 435.011,13.969 430.259,14.437 426.983,14.689 C 423.743,14.905 421.223,15.409 419.135,15.336 C 418.846,15.84 418.846,16.992 419.135,18.865 C 419.387,20.736 420.862,24.264 420.719,26.461 C 420.539,28.621 419.711,30.313 418.162,31.717 C 418.846,29.737 419.17,28.117 419.135,26.748 C 419.063,25.345 418.307,25.416 417.838,23.545 C 417.406,21.601 417.01,18.937 416.578,15.336 C 413.482,15.301 410.025,15.084 406.066,14.761 C 402.142,14.401 398.757,13.141 393.035,13.285 C 387.31,13.465 377.734,15.264 372.047,15.625 C 366.395,15.984 362.219,15.877 359.303,15.336 C 355.883,14.508 351.707,14.041 346.594,13.897 C 341.447,13.752 333.994,14.185 328.775,14.473 C 323.591,14.761 321.611,15.301 315.743,15.625 C 309.839,15.984 299.939,16.561 293.783,16.524 L 293.783,16.524 C 287.663,16.453 283.847,15.228 279.131,15.336 C 274.451,15.445 270.059,16.021 265.775,17.101 C 265.523,17.893 265.091,18.829 264.515,20.017 C 263.939,21.205 262.607,21.961 262.283,24.121 C 261.995,26.281 262.823,31.32 262.607,32.869 C 262.391,34.381 261.887,34.488 261.023,33.156 C 261.527,30.564 261.455,28.26 260.699,26.172 C 259.943,24.049 257.531,22.213 256.559,20.592 C 255.623,18.973 256.847,17.496 254.975,16.525 C 253.103,15.517 251.015,14.977 245.435,14.761 C 239.783,14.58 227.975,15.157 221.567,15.336 C 215.195,15.553 212.963,15.517 207.347,15.912 C 201.731,16.308 216.887,17.568 187.907,17.677 C 180.095,17.785 172.283,17.929 164.471,18.073 C 155.903,17.857 147.335,17.605 138.767,17.353 C 133.439,17.461 128.111,17.569 122.747,17.713 C 120.875,19.045 119.003,20.412 117.131,21.781 C 117.131,21.781 117.203,21.168 117.023,22.428 C 116.807,23.724 116.303,26.928 116.303,26.928 C 114.971,28.512 113.639,30.096 112.307,31.716 C 112.307,31.716 112.919,30.132 112.307,28.044 C 111.695,25.919 110.399,25.991 109.895,23.255 C 109.391,20.484 110.291,16.991 110.291,16.991 C 101.867,16.884 93.443,16.739 85.019,16.595 C 78.755,16.487 72.455,16.379 66.155,16.235 C 36.815,16.343 108.095,17.387 33.755,16.523 C 33.863,14.795 33.971,13.032 34.079,11.267 C 31.091,8.963 27.851,7.883 24.215,8.028 L 24.215,8.028 C 20.579,8.208 16.727,9.54 12.443,12.132 C 10.97,96.158 9.494,180.182 8.018,264.242 C 8.162,264.458 9.314,264.746 11.51,265.141 C 13.706,265.537 16.838,266.005 21.05,266.581 C 21.662,267.337 22.31,268.129 22.958,268.921 C 26.054,269.029 28.538,268.849 30.59,268.345 C 32.642,267.841 34.082,267.085 35.054,266.005 C 34.874,263.701 34.694,261.361 34.478,259.022 C 42.614,259.129 50.786,259.238 58.958,259.381 C 71.522,259.741 84.086,260.101 96.65,260.497 C 107.09,260.281 117.53,260.029 127.97,259.777 C 127.97,258.3 127.97,256.825 127.97,255.348 C 128.906,251.785 129.842,248.22 130.778,244.657 C 131.57,246.745 132.362,248.833 133.154,250.921 C 133.046,253.621 132.902,256.321 132.758,259.022 C 166.922,258.841 191.078,258.95 206.594,259.381 C 221.93,259.814 218.366,261.577 224.522,261.613 C 230.678,261.649 238.094,259.921 243.278,259.596 C 248.462,259.237 250.946,259.704 255.374,259.596 C 259.802,259.416 264.518,259.164 269.702,258.697 C 269.702,256.501 269.918,254.665 270.314,253.153 C 270.746,251.64 271.394,250.489 272.222,249.661 C 271.61,251.605 271.502,253.441 271.898,255.205 C 272.366,256.969 273.302,258.589 274.778,260.173 C 280.754,260.785 286.406,261.181 291.95,261.325 C 297.53,261.469 302.714,261.397 307.862,261.037 C 307.214,259.381 306.998,257.833 307.214,256.357 C 307.466,254.88 308.762,254.233 309.122,252.289 L 309.122,252.289 C 309.518,250.309 309.626,247.825 309.446,244.693 C 309.446,245.304 309.554,246.169 309.77,247.321 C 309.986,248.437 310.526,249.985 310.742,251.388 C 310.922,252.828 310.418,254.34 311.03,255.781 C 311.678,257.22 311.822,258.841 314.558,259.885 C 317.294,260.893 322.55,261.721 327.266,261.902 C 331.982,262.118 339.434,262.118 342.53,261.038 C 345.626,259.958 343.97,255.566 345.734,255.494 C 347.498,255.458 349.513,259.886 353.043,260.75 C 356.57,261.578 361.898,260.498 366.723,260.462 C 371.548,260.426 376.442,260.426 381.662,260.462 C 382.598,259.238 383.426,257.87 384.219,256.358 C 385.01,254.845 385.442,251.354 386.449,251.389 C 387.459,251.461 390.051,255.457 390.265,256.646 C 390.482,257.834 387.206,257.438 387.71,258.41 C 388.249,259.382 389.042,262.01 393.433,262.514 C 397.898,262.983 404.665,262.622 414.134,261.326 C 414.925,257.222 416.077,255.206 417.626,255.206 C 419.173,255.206 420.794,260.174 423.349,261.326 C 425.833,262.442 422.269,262.477 462.626,262.694 L 462.626,262.694 L 498.733,261.973 L 539.629,261.614 L 539.629,261.614 C 539.629,261.614 538.943,257.834 539.233,255.349 C 539.557,252.866 537.756,249.986 538.837,249.446 C 539.954,248.906 542.761,254.342 545.245,253.118 C 547.765,251.93 550.069,246.494 550.069,246.494 C 550.069,246.494 552.805,244.118 554.1,245.378 C 555.397,246.674 555.684,248.691 556.08,252.038 C 556.512,255.35 554.676,256.07 555.684,258.662 C 556.692,261.218 560.112,262.334 560.112,262.334 L 560.112,262.334 L 600.612,263.81 L 617.065,263.451 L 617.065,263.451 C 658.104,263.703 665.592,262.803 665.592,262.803 C 665.592,262.803 667.897,265.648 670.992,266.007 C 674.125,266.331 678.373,265.971 684.023,264.856 C 682.98,181.696 681.935,98.537 680.855,15.339 C 679.128,14.476 677.687,13.792 676.392,13.288 C 675.132,12.819 674.087,12.532 673.224,12.423 C 673.01,11.162 672.795,9.902 672.578,8.643 L 672.578,8.643 z M 679.598,15.914 C 676.358,16.562 673.262,16.742 670.059,16.526 C 666.819,16.274 662.75,15.302 660.483,14.474 C 658.251,13.646 657.026,12.673 656.667,11.558 C 656.847,18.974 657.351,32.654 658.286,53.318 C 659.186,74.089 660.591,99.686 662.102,134.822 C 663.579,170.101 665.27,212.006 667.178,262.801 C 669.231,263.917 671.498,264.493 674.162,264.53 C 676.861,264.601 679.777,264.134 683.09,263.09 C 681.938,180.722 680.785,98.318 679.598,15.914 L 679.598,15.914 z M 665.234,261.218 C 551.33,260.642 591.795,261.974 574.55,261.218 C 574.55,261.218 565.226,261.434 561.302,260.138 C 557.413,258.842 559.79,259.491 558.89,256.071 C 557.99,252.651 558.818,249.987 557.701,246.495 C 556.586,243.003 554.498,242.067 554.498,242.067 C 554.498,242.067 549.566,243.543 547.262,245.775 C 544.959,247.97 545.246,250.922 545.246,250.922 C 545.246,250.922 540.566,245.486 538.441,246.134 C 536.353,246.782 537.326,250.094 536.822,253.514 C 536.353,256.899 536.426,259.779 536.426,259.779 C 519.182,259.023 489.518,259.779 489.518,259.779 C 476.811,259.995 464.102,260.247 451.395,260.499 C 411.399,260.319 428.499,261.579 425.655,260.463 C 422.774,259.311 420.544,254.775 418.671,253.732 C 416.8,252.723 415.648,253.156 414.53,254.307 C 413.415,255.495 412.587,257.62 411.975,260.751 C 407.438,261.147 403.586,261.327 400.204,261.327 C 396.854,261.327 393.507,261.291 391.96,260.751 C 390.411,260.211 390.88,258.843 390.987,258.123 C 391.094,257.403 392.788,257.367 392.571,256.359 C 392.354,255.35 390.842,253.119 389.727,252.003 C 388.575,250.851 386.991,249.267 385.911,249.663 C 384.831,250.059 384.147,252.686 383.354,254.307 C 382.526,255.927 381.807,257.583 381.124,259.276 C 375.04,259.095 369.927,258.988 365.534,258.988 C 361.143,258.988 357.723,259.816 355.022,259.276 C 352.395,258.736 351.243,256.864 349.624,255.784 C 348.04,254.704 346.636,252.975 345.483,252.868 L 345.483,252.868 C 344.367,252.76 343.575,254.128 342.963,255.208 C 342.315,256.288 344.078,258.412 341.666,259.276 C 339.254,260.175 332.774,260.608 328.634,260.464 C 324.494,260.284 319.814,259.348 317.114,258.412 C 314.414,257.475 313.55,257.044 312.65,254.92 C 311.75,252.76 312.434,247.936 311.678,245.56 C 310.958,243.22 309.806,241.672 308.186,240.88 C 308.726,243.941 308.834,246.532 308.51,248.764 C 308.186,251.033 306.89,252.508 306.278,254.308 C 305.702,256.144 305.27,257.872 305.018,259.6 C 304.37,259.636 301.742,259.636 297.062,259.6 C 292.346,259.529 285.794,259.456 277.01,259.277 C 275.57,257.764 274.526,256.037 273.842,254.02 C 273.158,252.004 272.834,249.808 272.87,247.325 C 271.538,248.405 270.494,249.737 269.702,251.392 C 268.91,253.084 268.37,254.993 268.118,257.26 C 256.094,257.188 246.518,257.368 238.85,257.836 C 231.218,258.268 229.67,259.816 224.054,259.78 C 218.474,259.708 230.102,258.232 198.782,257.727 C 191.618,257.44 184.454,257.152 177.29,256.828 C 167.822,256.828 158.318,256.828 148.814,256.828 C 144.53,256.72 140.246,256.576 135.962,256.432 C 135.458,253.876 134.918,251.285 134.378,248.693 C 132.902,246.388 131.426,244.048 129.95,241.709 C 129.95,241.709 127.862,246.209 126.746,249.809 C 125.63,253.41 125.558,256.83 125.558,256.83 C 118.07,257.298 110.582,257.802 103.094,258.306 C 71.306,257.802 117.746,256.867 34.73,256.974 L 34.73,256.974 C 34.334,177.414 33.902,97.855 33.47,18.258 C 49.022,18.691 64.61,19.123 80.198,19.555 C 89.558,19.338 98.918,19.086 108.314,18.834 C 108.314,18.834 107.198,22.219 107.486,24.738 C 107.81,27.222 108.998,25.998 109.502,28.77 C 110.006,31.542 108.602,32.73 109.502,35.791 C 110.402,38.814 113.102,40.938 113.102,40.938 C 113.102,40.938 111.518,36.33 112.706,33.558 C 113.93,30.787 116.306,32.442 117.926,29.886 C 119.546,27.294 117.134,25.745 119.114,23.261 C 121.13,20.778 125.954,19.95 125.954,19.95 C 136.79,19.95 147.626,19.95 158.462,19.95 C 168.974,20.057 178.334,19.913 186.974,19.445 C 195.65,18.941 203.786,17.609 209.87,17.105 C 215.954,16.601 216.89,16.601 223.154,16.529 C 229.49,16.421 242.234,16.133 247.346,16.529 C 252.422,16.925 252.17,18.005 253.394,18.87 C 254.618,19.697 253.754,19.806 254.654,21.497 C 255.59,23.153 258.002,26.321 258.794,28.806 C 259.586,31.253 258.65,34.638 259.442,36.077 C 260.27,37.517 262.862,38.237 263.582,37.265 C 264.266,36.256 263.366,32.693 263.582,30.244 C 263.798,27.797 264.05,24.629 264.842,22.648 C 265.634,20.705 266.786,19.373 268.334,18.544 C 273.086,17.68 277.154,17.212 280.754,17.104 C 284.318,16.996 284.246,17.86 289.646,17.968 C 295.154,18.075 305.342,18.112 313.19,17.68 C 321.074,17.247 330.614,15.628 336.41,15.339 L 336.41,15.339 C 342.17,15.052 342.926,15.484 347.57,15.915 C 352.215,16.384 358.55,17.751 364.093,17.968 C 369.673,18.184 375.29,17.644 380.654,17.104 C 385.982,16.564 392.101,14.873 395.918,14.764 C 399.697,14.656 400.094,16.024 403.227,16.528 C 406.395,16.996 410.139,17.392 414.674,17.68 C 416.33,20.812 417.266,23.8 417.555,26.751 C 417.807,29.667 417.41,32.476 416.258,35.212 C 419.211,32.331 421.19,30.027 422.307,28.191 C 423.422,26.391 423.207,26.212 422.955,24.411 C 422.703,22.575 421.945,20.271 420.723,17.391 C 421.694,16.887 424.215,16.527 428.354,16.239 C 432.495,15.915 424.827,15.339 462.518,15.339 L 462.518,15.339 L 489.59,15.232 L 529.586,16.024 L 548.27,15.701 L 565.155,15.449 L 565.155,15.449 C 565.155,15.449 566.198,20.524 566.163,25.6 C 566.091,30.64 564.472,31.251 564.938,35.716 C 565.372,40.144 565.19,41.331 567.999,43.348 C 580.778,52.419 576.278,18.724 587.763,41.224 C 590.464,46.516 596.439,50.331 596.439,50.331 C 596.439,50.331 595.72,45.903 597.664,39.208 C 601.012,27.868 605.512,38.2 605.045,27.003 C 604.9,24.016 603.893,15.808 603.893,15.808 C 603.893,15.808 609.581,15.52 622.504,15.016 C 635.428,14.548 654.473,16.24 654.473,16.24 C 658.033,97.887 661.635,179.534 665.234,261.218 L 665.234,261.218 z M 671.318,10.082 C 671.714,11.342 672.146,12.603 672.578,13.898 C 674.055,14.257 675.529,14.654 677.043,15.05 C 673.623,15.23 670.49,15.05 667.502,14.474 C 664.514,13.863 661.814,12.925 659.223,11.558 C 661.887,10.622 664.19,10.046 666.207,9.794 C 668.258,9.543 669.914,9.65 671.318,10.082 L 671.318,10.082 z M 9.53,263.666 C 11.294,262.838 13.49,262.37 16.19,262.226 C 18.926,262.046 22.85,262.298 25.766,262.802 C 28.646,263.271 31.13,264.062 33.398,265.142 C 32.102,266.042 30.734,266.655 29.258,266.871 C 27.746,267.123 26.198,267.015 24.47,266.583 C 23.426,265.899 22.382,265.215 21.302,264.531 C 17.378,264.242 13.454,263.954 9.53,263.666 L 9.53,263.666 z M 33.398,262.802 C 32.966,238.79 32.642,206.642 32.426,164.63 C 32.21,122.475 32.102,72.615 32.102,12.422 C 31.346,10.515 29.474,9.651 26.378,9.795 C 23.282,9.939 19.106,11.09 13.67,13.287 C 12.302,95.942 10.934,178.634 9.53,261.326 C 13.706,260.389 17.342,259.922 20.654,259.886 C 23.966,259.815 27.098,260.534 29.258,261.038 C 31.382,261.542 32.75,262.118 33.398,262.802 L 33.398,262.802 z "
     style="fill-rule:evenodd;stroke:#000000;stroke-width:0.036;stroke-miterlimit:10"
     id="path58" /></g>
</svg>